<svg xmlns="http://www.w3.org/2000/svg" version="1.1" xmlns:xlink="http://www.w3.org/1999/xlink" xmlns:svgjs="http://svgjs.dev/svgjs" width="1440" height="560" preserveAspectRatio="none" viewBox="0 0 1440 560"><g mask="url(&quot;#SvgjsMask1264&quot;)" fill="none"><rect width="1440" height="560" x="0" y="0" fill="#0e2a47"></rect><path d="M196.99 548.63L261.94 586.13L261.94 661.13L196.99 698.63L132.04 661.13L132.04 586.13zM261.94 211.13L326.9 248.63L326.9 323.63L261.94 361.13L196.99 323.63L196.99 248.63zM326.9 323.63L391.85 361.13L391.85 436.13L326.9 473.63L261.94 436.13L261.94 361.13zM261.94 436.13L326.9 473.63L326.9 548.63L261.94 586.13L196.99 548.63L196.99 473.63zM586.71 98.63L651.67 136.13L651.67 211.13L586.71 248.63L521.76 211.13L521.76 136.13zM716.62 323.63L781.58 361.13L781.58 436.13L716.62 473.63L651.67 436.13L651.67 361.13zM651.67 436.13L716.62 473.63L716.62 548.63L651.67 586.13L586.71 548.63L586.71 473.63zM781.57 211.13L846.53 248.63L846.53 323.63L781.57 361.13L716.62 323.63L716.62 248.63zM911.48 436.13L976.44 473.63L976.44 548.63L911.48 586.13L846.53 548.63L846.53 473.63zM976.44 548.63L1041.39 586.13L1041.39 661.13L976.44 698.63L911.48 661.13L911.48 586.13zM1106.34 323.63L1171.3 361.13L1171.3 436.13L1106.34 473.63L1041.39 436.13L1041.39 361.13zM1106.34 548.63L1171.3 586.13L1171.3 661.13L1106.34 698.63L1041.39 661.13L1041.39 586.13zM1171.3 -13.87L1236.25 23.63L1236.25 98.63L1171.3 136.13L1106.34 98.63L1106.34 23.63zM1236.25 323.63L1301.2 361.13L1301.2 436.13L1236.25 473.63L1171.3 436.13L1171.3 361.13zM1236.25 548.63L1301.2 586.13L1301.2 661.13L1236.25 698.63L1171.3 661.13L1171.3 586.13zM1366.16 323.63L1431.11 361.13L1431.11 436.13L1366.16 473.63L1301.21 436.13L1301.21 361.13z" stroke="#03305d" stroke-width="2"></path><path d="M189.49 548.63 a7.5 7.5 0 1 0 15 0 a7.5 7.5 0 1 0 -15 0zM254.44 586.13 a7.5 7.5 0 1 0 15 0 a7.5 7.5 0 1 0 -15 0zM254.44 661.13 a7.5 7.5 0 1 0 15 0 a7.5 7.5 0 1 0 -15 0zM189.49 698.63 a7.5 7.5 0 1 0 15 0 a7.5 7.5 0 1 0 -15 0zM124.54 661.13 a7.5 7.5 0 1 0 15 0 a7.5 7.5 0 1 0 -15 0zM124.54 586.13 a7.5 7.5 0 1 0 15 0 a7.5 7.5 0 1 0 -15 0zM254.44 211.13 a7.5 7.5 0 1 0 15 0 a7.5 7.5 0 1 0 -15 0zM319.4 248.63 a7.5 7.5 0 1 0 15 0 a7.5 7.5 0 1 0 -15 0zM319.4 323.63 a7.5 7.5 0 1 0 15 0 a7.5 7.5 0 1 0 -15 0zM254.44 361.13 a7.5 7.5 0 1 0 15 0 a7.5 7.5 0 1 0 -15 0zM189.49 323.63 a7.5 7.5 0 1 0 15 0 a7.5 7.5 0 1 0 -15 0zM189.49 248.63 a7.5 7.5 0 1 0 15 0 a7.5 7.5 0 1 0 -15 0zM384.35 361.13 a7.5 7.5 0 1 0 15 0 a7.5 7.5 0 1 0 -15 0zM384.35 436.13 a7.5 7.5 0 1 0 15 0 a7.5 7.5 0 1 0 -15 0zM319.4 473.63 a7.5 7.5 0 1 0 15 0 a7.5 7.5 0 1 0 -15 0zM254.44 436.13 a7.5 7.5 0 1 0 15 0 a7.5 7.5 0 1 0 -15 0zM319.4 548.63 a7.5 7.5 0 1 0 15 0 a7.5 7.5 0 1 0 -15 0zM189.49 473.63 a7.5 7.5 0 1 0 15 0 a7.5 7.5 0 1 0 -15 0zM579.21 98.63 a7.5 7.5 0 1 0 15 0 a7.5 7.5 0 1 0 -15 0zM644.17 136.13 a7.5 7.5 0 1 0 15 0 a7.5 7.5 0 1 0 -15 0zM644.17 211.13 a7.5 7.5 0 1 0 15 0 a7.5 7.5 0 1 0 -15 0zM579.21 248.63 a7.5 7.5 0 1 0 15 0 a7.5 7.5 0 1 0 -15 0zM514.26 211.13 a7.5 7.5 0 1 0 15 0 a7.5 7.5 0 1 0 -15 0zM514.26 136.13 a7.5 7.5 0 1 0 15 0 a7.5 7.5 0 1 0 -15 0zM709.12 323.63 a7.5 7.5 0 1 0 15 0 a7.5 7.5 0 1 0 -15 0zM774.08 361.13 a7.5 7.5 0 1 0 15 0 a7.5 7.5 0 1 0 -15 0zM774.08 436.13 a7.5 7.5 0 1 0 15 0 a7.5 7.5 0 1 0 -15 0zM709.12 473.63 a7.5 7.5 0 1 0 15 0 a7.5 7.5 0 1 0 -15 0zM644.17 436.13 a7.5 7.5 0 1 0 15 0 a7.5 7.5 0 1 0 -15 0zM644.17 361.13 a7.5 7.5 0 1 0 15 0 a7.5 7.5 0 1 0 -15 0zM709.12 548.63 a7.5 7.5 0 1 0 15 0 a7.5 7.5 0 1 0 -15 0zM644.17 586.13 a7.5 7.5 0 1 0 15 0 a7.5 7.5 0 1 0 -15 0zM579.21 548.63 a7.5 7.5 0 1 0 15 0 a7.5 7.5 0 1 0 -15 0zM579.21 473.63 a7.5 7.5 0 1 0 15 0 a7.5 7.5 0 1 0 -15 0zM774.07 211.13 a7.5 7.5 0 1 0 15 0 a7.5 7.5 0 1 0 -15 0zM839.03 248.63 a7.5 7.5 0 1 0 15 0 a7.5 7.5 0 1 0 -15 0zM839.03 323.63 a7.5 7.5 0 1 0 15 0 a7.5 7.5 0 1 0 -15 0zM774.07 361.13 a7.5 7.5 0 1 0 15 0 a7.5 7.5 0 1 0 -15 0zM709.12 248.63 a7.5 7.5 0 1 0 15 0 a7.5 7.5 0 1 0 -15 0zM903.98 436.13 a7.5 7.5 0 1 0 15 0 a7.5 7.5 0 1 0 -15 0zM968.94 473.63 a7.5 7.5 0 1 0 15 0 a7.5 7.5 0 1 0 -15 0zM968.94 548.63 a7.5 7.5 0 1 0 15 0 a7.5 7.5 0 1 0 -15 0zM903.98 586.13 a7.5 7.5 0 1 0 15 0 a7.5 7.5 0 1 0 -15 0zM839.03 548.63 a7.5 7.5 0 1 0 15 0 a7.5 7.5 0 1 0 -15 0zM839.03 473.63 a7.5 7.5 0 1 0 15 0 a7.5 7.5 0 1 0 -15 0zM1033.89 586.13 a7.5 7.5 0 1 0 15 0 a7.5 7.5 0 1 0 -15 0zM1033.89 661.13 a7.5 7.5 0 1 0 15 0 a7.5 7.5 0 1 0 -15 0zM968.94 698.63 a7.5 7.5 0 1 0 15 0 a7.5 7.5 0 1 0 -15 0zM903.98 661.13 a7.5 7.5 0 1 0 15 0 a7.5 7.5 0 1 0 -15 0zM1098.84 323.63 a7.5 7.5 0 1 0 15 0 a7.5 7.5 0 1 0 -15 0zM1163.8 361.13 a7.5 7.5 0 1 0 15 0 a7.5 7.5 0 1 0 -15 0zM1163.8 436.13 a7.5 7.5 0 1 0 15 0 a7.5 7.5 0 1 0 -15 0zM1098.84 473.63 a7.5 7.5 0 1 0 15 0 a7.5 7.5 0 1 0 -15 0zM1033.89 436.13 a7.5 7.5 0 1 0 15 0 a7.5 7.5 0 1 0 -15 0zM1033.89 361.13 a7.5 7.5 0 1 0 15 0 a7.5 7.5 0 1 0 -15 0zM1098.84 548.63 a7.5 7.5 0 1 0 15 0 a7.5 7.5 0 1 0 -15 0zM1163.8 586.13 a7.5 7.5 0 1 0 15 0 a7.5 7.5 0 1 0 -15 0zM1163.8 661.13 a7.5 7.5 0 1 0 15 0 a7.5 7.5 0 1 0 -15 0zM1098.84 698.63 a7.5 7.5 0 1 0 15 0 a7.5 7.5 0 1 0 -15 0zM1163.8 -13.87 a7.5 7.5 0 1 0 15 0 a7.5 7.5 0 1 0 -15 0zM1228.75 23.63 a7.5 7.5 0 1 0 15 0 a7.5 7.5 0 1 0 -15 0zM1228.75 98.63 a7.5 7.5 0 1 0 15 0 a7.5 7.5 0 1 0 -15 0zM1163.8 136.13 a7.5 7.5 0 1 0 15 0 a7.5 7.5 0 1 0 -15 0zM1098.84 98.63 a7.5 7.5 0 1 0 15 0 a7.5 7.5 0 1 0 -15 0zM1098.84 23.63 a7.5 7.5 0 1 0 15 0 a7.5 7.5 0 1 0 -15 0zM1228.75 323.63 a7.5 7.5 0 1 0 15 0 a7.5 7.5 0 1 0 -15 0zM1293.7 361.13 a7.5 7.5 0 1 0 15 0 a7.5 7.5 0 1 0 -15 0zM1293.7 436.13 a7.5 7.5 0 1 0 15 0 a7.5 7.5 0 1 0 -15 0zM1228.75 473.63 a7.5 7.5 0 1 0 15 0 a7.5 7.5 0 1 0 -15 0zM1228.75 548.63 a7.5 7.5 0 1 0 15 0 a7.5 7.5 0 1 0 -15 0zM1293.7 586.13 a7.5 7.5 0 1 0 15 0 a7.5 7.5 0 1 0 -15 0zM1293.7 661.13 a7.5 7.5 0 1 0 15 0 a7.5 7.5 0 1 0 -15 0zM1228.75 698.63 a7.5 7.5 0 1 0 15 0 a7.5 7.5 0 1 0 -15 0zM1358.66 323.63 a7.5 7.5 0 1 0 15 0 a7.5 7.5 0 1 0 -15 0zM1423.61 361.13 a7.5 7.5 0 1 0 15 0 a7.5 7.5 0 1 0 -15 0zM1423.61 436.13 a7.5 7.5 0 1 0 15 0 a7.5 7.5 0 1 0 -15 0zM1358.66 473.63 a7.5 7.5 0 1 0 15 0 a7.5 7.5 0 1 0 -15 0zM1293.71 436.13 a7.5 7.5 0 1 0 15 0 a7.5 7.5 0 1 0 -15 0zM1293.71 361.13 a7.5 7.5 0 1 0 15 0 a7.5 7.5 0 1 0 -15 0z" fill="#03305d"></path><path d="M30.89 -1.98L63.8 17.02L63.8 55.02L30.89 74.02L-2.02 55.02L-2.02 17.02zM96.71 -1.98L129.62 17.02L129.62 55.02L96.71 74.02L63.8 55.02L63.8 17.02zM129.62 169.02L162.53 188.02L162.53 226.02L129.62 245.02L96.71 226.02L96.71 188.02zM129.62 283.02L162.53 302.02L162.53 340.02L129.62 359.02L96.71 340.02L96.71 302.02zM195.44 169.02L228.35 188.02L228.35 226.02L195.44 245.02L162.53 226.02L162.53 188.02zM162.53 454.02L195.44 473.02L195.44 511.02L162.53 530.02L129.62 511.02L129.62 473.02zM162.53 568.02L195.44 587.02L195.44 625.02L162.53 644.02L129.62 625.02L129.62 587.02zM261.26 55.02L294.17 74.02L294.17 112.02L261.26 131.02L228.35 112.02L228.35 74.02zM228.35 226.02L261.26 245.02L261.26 283.02L228.35 302.02L195.44 283.02L195.44 245.02zM261.26 283.02L294.17 302.02L294.17 340.02L261.26 359.02L228.35 340.02L228.35 302.02zM228.35 340.02L261.26 359.02L261.26 397.02L228.35 416.02L195.44 397.02L195.44 359.02zM294.17 -1.98L327.08 17.02L327.08 55.02L294.17 74.02L261.26 55.02L261.26 17.02zM294.17 226.02L327.08 245.02L327.08 283.02L294.17 302.02L261.26 283.02L261.26 245.02zM327.08 283.02L359.99 302.02L359.99 340.02L327.08 359.02L294.17 340.02L294.17 302.02zM294.17 340.02L327.08 359.02L327.08 397.02L294.17 416.02L261.26 397.02L261.26 359.02zM327.08 397.02L359.99 416.02L359.99 454.02L327.08 473.02L294.17 454.02L294.17 416.02zM327.08 511.02L359.99 530.02L359.99 568.02L327.08 587.02L294.17 568.02L294.17 530.02zM359.99 -1.98L392.9 17.02L392.9 55.02L359.99 74.02L327.08 55.02L327.08 17.02zM392.9 283.02L425.81 302.02L425.81 340.02L392.9 359.02L359.99 340.02L359.99 302.02zM359.99 340.02L392.9 359.02L392.9 397.02L359.99 416.02L327.08 397.02L327.08 359.02zM392.9 511.02L425.81 530.02L425.81 568.02L392.9 587.02L359.99 568.02L359.99 530.02zM458.72 55.02L491.63 74.02L491.63 112.02L458.72 131.02L425.81 112.02L425.81 74.02zM458.72 283.02L491.63 302.02L491.63 340.02L458.72 359.02L425.81 340.02L425.81 302.02zM425.81 340.02L458.72 359.02L458.72 397.02L425.81 416.02L392.9 397.02L392.9 359.02zM458.72 511.02L491.63 530.02L491.63 568.02L458.72 587.02L425.81 568.02L425.81 530.02zM524.54 397.02L557.45 416.02L557.45 454.02L524.54 473.02L491.63 454.02L491.63 416.02zM524.54 511.02L557.45 530.02L557.45 568.02L524.54 587.02L491.63 568.02L491.63 530.02zM491.63 568.02L524.54 587.02L524.54 625.02L491.63 644.02L458.72 625.02L458.72 587.02zM557.45 226.02L590.36 245.02L590.36 283.02L557.45 302.02L524.54 283.02L524.54 245.02zM590.36 283.02L623.27 302.02L623.27 340.02L590.36 359.02L557.45 340.02L557.45 302.02zM557.45 340.02L590.36 359.02L590.36 397.02L557.45 416.02L524.54 397.02L524.54 359.02zM590.36 397.02L623.27 416.02L623.27 454.02L590.36 473.02L557.45 454.02L557.45 416.02zM590.36 511.02L623.27 530.02L623.27 568.02L590.36 587.02L557.45 568.02L557.45 530.02zM623.27 112.02L656.18 131.02L656.18 169.02L623.27 188.02L590.36 169.02L590.36 131.02zM656.18 283.02L689.09 302.02L689.09 340.02L656.18 359.02L623.27 340.02L623.27 302.02zM623.27 454.02L656.18 473.02L656.18 511.02L623.27 530.02L590.36 511.02L590.36 473.02zM722 55.02L754.91 74.02L754.91 112.02L722 131.02L689.09 112.02L689.09 74.02zM722 169.02L754.91 188.02L754.91 226.02L722 245.02L689.09 226.02L689.09 188.02zM689.09 226.02L722 245.02L722 283.02L689.09 302.02L656.18 283.02L656.18 245.02zM689.09 454.02L722 473.02L722 511.02L689.09 530.02L656.18 511.02L656.18 473.02zM689.09 568.02L722 587.02L722 625.02L689.09 644.02L656.18 625.02L656.18 587.02zM787.82 169.02L820.73 188.02L820.73 226.02L787.82 245.02L754.91 226.02L754.91 188.02zM754.91 568.02L787.82 587.02L787.82 625.02L754.91 644.02L722 625.02L722 587.02zM853.64 55.02L886.55 74.02L886.55 112.02L853.64 131.02L820.73 112.02L820.73 74.02zM853.64 169.02L886.55 188.02L886.55 226.02L853.64 245.02L820.73 226.02L820.73 188.02zM820.73 340.02L853.64 359.02L853.64 397.02L820.73 416.02L787.82 397.02L787.82 359.02zM919.46 511.02L952.37 530.02L952.37 568.02L919.46 587.02L886.55 568.02L886.55 530.02zM886.55 568.02L919.46 587.02L919.46 625.02L886.55 644.02L853.64 625.02L853.64 587.02zM985.28 169.02L1018.19 188.02L1018.19 226.02L985.28 245.02L952.37 226.02L952.37 188.02zM985.28 511.02L1018.19 530.02L1018.19 568.02L985.28 587.02L952.37 568.02L952.37 530.02zM1018.19 112.02L1051.1 131.02L1051.1 169.02L1018.19 188.02L985.28 169.02L985.28 131.02zM1018.19 340.02L1051.1 359.02L1051.1 397.02L1018.19 416.02L985.28 397.02L985.28 359.02zM1051.1 397.02L1084.01 416.02L1084.01 454.02L1051.1 473.02L1018.19 454.02L1018.19 416.02zM1084.01 -1.98L1116.92 17.02L1116.92 55.02L1084.01 74.02L1051.1 55.02L1051.1 17.02zM1116.92 55.02L1149.83 74.02L1149.83 112.02L1116.92 131.02L1084.01 112.02L1084.01 74.02zM1084.01 112.02L1116.92 131.02L1116.92 169.02L1084.01 188.02L1051.1 169.02L1051.1 131.02zM1116.92 169.02L1149.83 188.02L1149.83 226.02L1116.92 245.02L1084.01 226.02L1084.01 188.02zM1084.01 226.02L1116.92 245.02L1116.92 283.02L1084.01 302.02L1051.1 283.02L1051.1 245.02zM1116.92 511.02L1149.83 530.02L1149.83 568.02L1116.92 587.02L1084.01 568.02L1084.01 530.02zM1084.01 568.02L1116.92 587.02L1116.92 625.02L1084.01 644.02L1051.1 625.02L1051.1 587.02zM1149.83 -1.98L1182.74 17.02L1182.74 55.02L1149.83 74.02L1116.92 55.02L1116.92 17.02zM1149.83 226.02L1182.74 245.02L1182.74 283.02L1149.83 302.02L1116.92 283.02L1116.92 245.02zM1182.74 283.02L1215.65 302.02L1215.65 340.02L1182.74 359.02L1149.83 340.02L1149.83 302.02zM1149.83 340.02L1182.74 359.02L1182.74 397.02L1149.83 416.02L1116.92 397.02L1116.92 359.02zM1149.83 454.02L1182.74 473.02L1182.74 511.02L1149.83 530.02L1116.92 511.02L1116.92 473.02zM1149.83 568.02L1182.74 587.02L1182.74 625.02L1149.83 644.02L1116.92 625.02L1116.92 587.02zM1215.65 112.02L1248.56 131.02L1248.56 169.02L1215.65 188.02L1182.74 169.02L1182.74 131.02zM1281.47 454.02L1314.38 473.02L1314.38 511.02L1281.47 530.02L1248.56 511.02L1248.56 473.02zM1380.2 55.02L1413.11 74.02L1413.11 112.02L1380.2 131.02L1347.29 112.02L1347.29 74.02zM1347.29 454.02L1380.2 473.02L1380.2 511.02L1347.29 530.02L1314.38 511.02L1314.38 473.02zM1413.11 -1.98L1446.02 17.02L1446.02 55.02L1413.11 74.02L1380.2 55.02L1380.2 17.02zM1446.02 55.02L1478.93 74.02L1478.93 112.02L1446.02 131.02L1413.11 112.02L1413.11 74.02zM1413.11 568.02L1446.02 587.02L1446.02 625.02L1413.11 644.02L1380.2 625.02L1380.2 587.02z" stroke="url(&quot;#SvgjsLinearGradient1265&quot;)" stroke-width="2"></path></g><defs><mask id="SvgjsMask1264"><rect width="1440" height="560" fill="#ffffff"></rect></mask><linearGradient x1="220.03199999999998" y1="-220.02399999999997" x2="1219.9679999999998" y2="780.024" gradientUnits="userSpaceOnUse" id="SvgjsLinearGradient1265"><stop stop-color="#0e2a47" offset="0"></stop><stop stop-color="rgba(0, 69, 158, 0.69)" offset="1"></stop></linearGradient></defs></svg>