<svg xmlns="http://www.w3.org/2000/svg" version="1.1" xmlns:xlink="http://www.w3.org/1999/xlink" xmlns:svgjs="http://svgjs.dev/svgjs" width="1440" height="560" preserveAspectRatio="none" viewBox="0 0 1440 560"><g mask="url(&quot;#SvgjsMask1028&quot;)" fill="none"><rect width="1440" height="560" x="0" y="0" fill="#0e2a47"></rect><path d="M0,428.436C79.88,437.824,156.331,391.575,220.409,342.964C281.362,296.724,324.101,232.025,352.535,160.997C380.005,92.376,399.886,16.491,379.55,-54.571C360.143,-122.386,299.269,-167.051,245.569,-212.787C198.806,-252.615,147.622,-284.728,88.747,-302.244C29.709,-319.809,-32.205,-328.127,-91.967,-313.21C-153.232,-297.918,-207.618,-263.38,-250.954,-217.453C-295.565,-170.175,-323.545,-111.615,-341.217,-49.06C-360.971,20.864,-388,97.321,-358.661,163.795C-329.263,230.401,-248.036,251.567,-189.452,294.794C-125.98,341.627,-78.341,419.229,0,428.436" fill="#091b2e"></path><path d="M1440 994.954C1517.522 975.15 1568.939 908.6279999999999 1636.153 865.221 1703.173 821.94 1795.634 809.8340000000001 1834.5230000000001 740.173 1873.912 669.617 1860.436 580.481 1838.537 502.699 1818.312 430.865 1761.221 380.169 1716.371 320.523 1667.698 255.793 1637.358 171.983 1564.022 137.61900000000003 1487.092 101.57100000000003 1393.556 101.36599999999999 1314.373 132.152 1237.683 161.969 1195.913 239.62400000000002 1141.934 301.725 1087.8609999999999 363.93399999999997 1018.727 416.702 997.752 496.414 975.681 580.292 995.63 668.021 1023.981 749.99 1054.576 838.446 1086.133 937.636 1166.787 985.1279999999999 1246.938 1032.3229999999999 1349.88 1017.977 1440 994.954" fill="#133960"></path></g><defs><mask id="SvgjsMask1028"><rect width="1440" height="560" fill="#ffffff"></rect></mask></defs></svg>